<svg width="35" height="31" viewBox="0 0 35 31" fill="none" xmlns="http://www.w3.org/2000/svg">
<g clip-path="url(#clip0_320_3637)">
<path d="M15.4689 2.39615C16.2569 2.39238 17.0378 2.54495 17.7665 2.84504C18.4951 3.14512 19.157 3.58677 19.7139 4.1444L22.8046 7.23515L26.7939 11.2236C27.9179 12.3503 28.5492 13.8768 28.5492 15.4683C28.5492 17.0598 27.9179 18.5863 26.7939 19.7129L23.0724 23.4344L19.7146 26.7921C18.5857 27.9118 17.06 28.5401 15.47 28.5401C13.88 28.5401 12.3543 27.9118 11.2254 26.7921L7.49637 23.0632L4.14537 19.7129C3.02569 18.5839 2.39745 17.0583 2.39745 15.4683C2.39745 13.8782 3.02569 12.3526 4.14537 11.2236L7.95762 7.41214L11.2254 4.1444C11.7821 3.58683 12.4438 3.14521 13.1724 2.84513C13.9009 2.54504 14.6817 2.39244 15.4696 2.39615H15.4689ZM15.4696 -0.00385683C14.3672 -0.00659077 13.2752 0.208378 12.2561 0.628727C11.237 1.04908 10.311 1.66652 9.53112 2.44564L6.26337 5.71414L2.45112 9.52564C0.881988 11.1039 0.0012207 13.239 0.0012207 15.4645C0.0012207 17.6901 0.881988 19.8252 2.45112 21.4034L5.80212 24.7544L9.53112 28.4834C11.1095 30.0523 13.2445 30.933 15.47 30.933C17.6955 30.933 19.8305 30.0523 21.4089 28.4834L24.7674 25.1249L28.4896 21.4026C30.0586 19.8243 30.9392 17.6893 30.9392 15.4638C30.9392 13.2383 30.0586 11.1032 28.4896 9.52491L24.5004 5.53639L21.4089 2.4449C20.629 1.66576 19.703 1.04828 18.6839 0.627926C17.6648 0.207575 16.5727 -0.00738711 15.4704 -0.00461214" fill="white"/>
<path d="M15.4689 8.32404C15.9211 8.32191 16.3693 8.40951 16.7874 8.58176C17.2056 8.75402 17.5854 9.0075 17.9049 9.32755L21.6099 13.0326C22.2545 13.6792 22.6165 14.5551 22.6165 15.4682C22.6165 16.3813 22.2545 17.2571 21.6099 17.9038L17.9049 21.6088C17.257 22.2526 16.3808 22.6139 15.4674 22.6139C14.5541 22.6139 13.6778 22.2526 13.0299 21.6088L9.32491 17.9038C8.68029 17.2571 8.31832 16.3813 8.31832 15.4682C8.31832 14.5551 8.68029 13.6792 9.32491 13.0326L13.0299 9.32755C13.3494 9.00754 13.7293 8.75406 14.1474 8.58181C14.5655 8.40956 15.0137 8.32195 15.4659 8.32404H15.4689ZM15.4659 7.37379C14.8891 7.37236 14.3177 7.48485 13.7845 7.7048C13.2512 7.92476 12.7667 8.24786 12.3587 8.65556L8.65366 12.3606C7.8328 13.1865 7.37207 14.3037 7.37207 15.4682C7.37207 16.6327 7.8328 17.7498 8.65366 18.5758L12.3587 22.2808C13.1846 23.1017 14.3018 23.5624 15.4663 23.5624C16.6308 23.5624 17.748 23.1017 18.5739 22.2808L22.2782 18.5758C23.099 17.7498 23.5598 16.6327 23.5598 15.4682C23.5598 14.3037 23.099 13.1865 22.2782 12.3606L18.5739 8.65556C18.1658 8.24781 17.6811 7.92467 17.1477 7.70471C16.6144 7.48475 16.0428 7.3723 15.4659 7.37379Z" fill="white"/>
<path d="M16.2548 5.77423C17 5.77265 17.7349 5.94733 18.3997 6.28402C19.0644 6.6207 19.6402 7.10984 20.0798 7.71148L24.2798 13.5052C25.0065 14.5175 25.3039 15.7759 25.1072 17.0064C24.9106 18.2369 24.2358 19.3399 23.2298 20.0752L17.4361 24.2752C16.6376 24.8556 15.6752 25.1669 14.6881 25.164C13.9429 25.1656 13.2079 24.9909 12.5432 24.6542C11.8784 24.3175 11.3027 23.8284 10.863 23.2267L6.66305 17.433C5.93245 16.422 5.6327 15.1626 5.82955 13.9309C6.02639 12.6992 6.70376 11.5959 7.71305 10.863L13.5068 6.66298C14.3052 6.08256 15.2677 5.77129 16.2548 5.77423ZM16.2548 4.47599C14.9942 4.47402 13.7654 4.87153 12.7448 5.61147L6.95105 9.81148C5.66707 10.7484 4.80573 12.1551 4.55493 13.7247C4.30413 15.2943 4.68423 16.8993 5.6123 18.1897L9.8123 23.9835C10.749 25.2692 12.1566 26.1318 13.7274 26.3827C15.2983 26.6336 16.9045 26.2523 18.195 25.3222L23.9888 21.1222C25.2739 20.1851 26.136 18.7775 26.3867 17.2068C26.6374 15.6362 26.2564 14.0301 25.3268 12.7395L21.1268 6.94574C20.5679 6.17698 19.8346 5.55178 18.9872 5.12153C18.1397 4.69127 17.2022 4.46822 16.2518 4.47072" fill="white"/>
<path d="M16.6013 11.748C17.0134 11.7373 17.4183 11.8571 17.7583 12.0902C18.0982 12.3234 18.3558 12.658 18.4943 13.0462L18.4988 13.0613L18.5033 13.0762L19.3411 15.8932C19.4504 16.3352 19.3806 16.8025 19.1468 17.1933C18.913 17.584 18.5343 17.8664 18.0931 17.979L15.5828 18.6202C15.4446 18.6557 15.3025 18.6736 15.1598 18.6735C14.7759 18.6744 14.4026 18.5472 14.0991 18.3121C13.7957 18.0769 13.5793 17.7472 13.4843 17.3752L13.4806 17.3602L13.4761 17.346L12.6376 14.5312C12.5304 14.0894 12.6012 13.6231 12.8347 13.2329C13.0681 12.8428 13.4456 12.56 13.8856 12.4455H13.8946H13.9036L16.1708 11.8072C16.3117 11.7728 16.4563 11.7557 16.6013 11.7562V11.748ZM16.6013 10.9717C16.3883 10.9702 16.1759 10.9954 15.9691 11.0467L13.6921 11.688C13.0481 11.8544 12.4962 12.269 12.157 12.8411C11.8177 13.4132 11.7187 14.0964 11.8816 14.7412L12.7246 17.5747C12.8645 18.1147 13.1795 18.593 13.6203 18.9347C14.0611 19.2764 14.6028 19.4623 15.1606 19.4632C15.3686 19.4642 15.576 19.439 15.7778 19.3882L18.2881 18.747C18.9319 18.5804 19.4837 18.1658 19.8229 17.5937C20.1621 17.0217 20.2612 16.3386 20.0986 15.6937L19.2556 12.861C19.0739 12.3035 18.718 11.8191 18.2403 11.4791C17.7626 11.1391 17.1883 10.9615 16.6021 10.9725" fill="white"/>
</g>
<defs>
<clipPath id="clip0_320_3637">
<rect width="120" height="30.9368" fill="white"/>
</clipPath>
</defs>
</svg>
